<svg width="50" height="50" viewBox="0 0 50 50" fill="none" xmlns="http://www.w3.org/2000/svg">
<g clip-path="url(#clip0)">
<path d="M24.9999 30.009C27.4612 30.009 29.4564 27.7664 29.4564 25C29.4564 22.2337 27.4612 19.9911 24.9999 19.9911C22.5386 19.9911 20.5434 22.2337 20.5434 25C20.5434 27.7664 22.5386 30.009 24.9999 30.009Z" fill="#61DAFB"/>
<path d="M25 35.2622C38.2068 35.2622 48.9131 30.6676 48.9131 25C48.9131 19.3323 38.2068 14.7378 25 14.7378C11.7932 14.7378 1.08698 19.3323 1.08698 25C1.08698 30.6676 11.7932 35.2622 25 35.2622Z" stroke="#61DAFB" stroke-width="2"/>
<path d="M17.0928 30.1311C23.6962 42.9862 32.5895 51.1101 36.9565 48.2763C41.3236 45.4425 39.5106 32.7241 32.9072 19.8689C26.3038 7.01377 17.4105 -1.11011 13.0435 1.72371C8.67648 4.55754 10.4894 17.276 17.0928 30.1311Z" stroke="#61DAFB" stroke-width="2"/>
<path d="M17.0929 19.8689C10.4895 32.7241 8.67652 45.4425 13.0435 48.2763C17.4106 51.1101 26.3038 42.9863 32.9072 30.1311C39.5107 17.276 41.3236 4.55756 36.9566 1.72374C32.5896 -1.11009 23.6963 7.0138 17.0929 19.8689Z" stroke="#61DAFB" stroke-width="2"/>
</g>
<defs>
<clipPath id="clip0">
<rect width="50" height="50" fill="white"/>
</clipPath>
</defs>
</svg>
