<svg width="37" height="50" viewBox="0 0 37 50" fill="none" xmlns="http://www.w3.org/2000/svg">
<path d="M0.0227051 40.3423L6.17657 0.96154C6.21325 0.726045 6.32305 0.508042 6.49042 0.338366C6.6578 0.16869 6.87428 0.0559307 7.10925 0.0160356C7.34422 -0.0238595 7.58579 0.0111295 7.79979 0.116054C8.01379 0.220978 8.18938 0.390526 8.30173 0.600718L14.6658 12.4709L17.203 7.64102C17.2994 7.45776 17.444 7.30433 17.6213 7.1973C17.7985 7.09026 18.0017 7.03369 18.2087 7.03369C18.4158 7.03369 18.6189 7.09026 18.7962 7.1973C18.9734 7.30433 19.1181 7.45776 19.2145 7.64102L36.3891 40.3423H0.0227051Z" fill="#FFA000"/>
<path d="M21.2828 25.0031L14.663 12.468L0.0227051 40.3423L21.2828 25.0031V25.0031Z" fill="#F57C00"/>
<path d="M36.3891 40.3423L31.6756 11.1754C31.6407 10.9699 31.5499 10.778 31.4133 10.6206C31.2766 10.4632 31.0993 10.3465 30.9007 10.2831C30.7021 10.2198 30.4899 10.2123 30.2874 10.2614C30.0848 10.3105 29.8997 10.4144 29.7522 10.5617L0.0227051 40.3423L16.4728 49.5675C16.9808 49.8511 17.553 50 18.1349 50C18.7167 50 19.2889 49.8511 19.7969 49.5675L36.3891 40.3423Z" fill="#FFCA28"/>
<path d="M31.6757 11.1753C31.6407 10.9698 31.55 10.7778 31.4133 10.6205C31.2766 10.4631 31.0993 10.3464 30.9007 10.283C30.7021 10.2197 30.49 10.2121 30.2874 10.2613C30.0849 10.3104 29.8997 10.4143 29.7522 10.5616L23.8541 16.4768L19.2117 7.63806C19.1153 7.4548 18.9706 7.30137 18.7934 7.19434C18.6161 7.0873 18.413 7.03073 18.2059 7.03073C17.9988 7.03073 17.7957 7.0873 17.6185 7.19434C17.4412 7.30137 17.2966 7.4548 17.2002 7.63806L14.663 12.468L8.29892 0.600599C8.18637 0.390366 8.01054 0.220863 7.79633 0.116089C7.58211 0.0113154 7.34037 -0.0234196 7.10532 0.0168025C6.87027 0.0570245 6.65383 0.170165 6.48665 0.340205C6.31946 0.510245 6.21 0.728568 6.17376 0.964263L0.022729 40.3422H0L0.0198878 40.3649L0.181832 40.4445L23.8399 16.7609L29.7437 10.8514C29.8911 10.7033 30.0765 10.5987 30.2794 10.5491C30.4824 10.4995 30.6951 10.5068 30.8942 10.5702C31.0932 10.6336 31.271 10.7507 31.4078 10.9086C31.5447 11.0664 31.6354 11.259 31.67 11.465L36.3436 40.3706L36.3891 40.3422L31.6757 11.1753ZM0.0767099 40.2882L6.1766 1.24553C6.21284 1.00984 6.3223 0.791516 6.48949 0.621476C6.65667 0.451436 6.87311 0.338296 7.10816 0.298074C7.34321 0.257852 7.58495 0.292586 7.79917 0.39736C8.01338 0.502133 8.18921 0.671637 8.30176 0.88187L14.6659 12.7521L17.203 7.92217C17.2994 7.73891 17.444 7.58548 17.6213 7.47845C17.7986 7.37141 18.0017 7.31484 18.2087 7.31484C18.4158 7.31484 18.6189 7.37141 18.7962 7.47845C18.9735 7.58548 19.1181 7.73891 19.2145 7.92217L23.7603 16.5677L0.0767099 40.2882Z" fill="white" fill-opacity="0.2"/>
<path d="M31.6756 11.1754C31.6407 10.9699 31.5499 10.778 31.4133 10.6206C31.2766 10.4632 31.0993 10.3465 30.9007 10.2831C30.7021 10.2198 30.4899 10.2123 30.2874 10.2614C30.0848 10.3105 29.8997 10.4144 29.7522 10.5617L23.854 16.4769L19.2116 7.63818C19.1152 7.45493 18.9706 7.3015 18.7933 7.19446C18.6161 7.08742 18.4129 7.03085 18.2059 7.03085C17.9988 7.03085 17.7957 7.08742 17.6184 7.19446C17.4412 7.3015 17.2965 7.45493 17.2001 7.63818L14.663 12.4681L8.29889 0.600721C8.18634 0.390488 8.01051 0.220985 7.7963 0.116211C7.58209 0.0114374 7.34034 -0.0232975 7.10529 0.0169245C6.87025 0.0571466 6.65381 0.170287 6.48662 0.340327C6.31943 0.510368 6.20997 0.72869 6.17373 0.964385L0.0227051 40.3423L16.4728 49.5646C16.9808 49.8483 17.553 49.9972 18.1349 49.9972C18.7167 49.9972 19.2889 49.8483 19.7969 49.5646L36.3891 40.3423L31.6756 11.1754Z" fill="url(#paint0_linear)"/>
<defs>
<linearGradient id="paint0_linear" x1="-1.34447" y1="9.16977" x2="36.6376" y2="47.1518" gradientUnits="userSpaceOnUse">
<stop stop-color="white" stop-opacity="0.1"/>
<stop offset="1" stop-color="white" stop-opacity="0"/>
</linearGradient>
</defs>
</svg>
