<svg width="26" height="27" viewBox="0 0 26 27" fill="none" xmlns="http://www.w3.org/2000/svg">
<path d="M26 2.73901V24.739C26 25.2694 25.789 25.7781 25.414 26.1532C25.039 26.5283 24.53 26.739 24 26.739H2C1.4696 26.739 0.9609 26.5283 0.5858 26.1532C0.2107 25.7781 0 25.2694 0 24.739V2.73901C0 2.20858 0.2107 1.69987 0.5858 1.3248C0.9609 0.949727 1.4696 0.739014 2 0.739014H24C24.53 0.739014 25.039 0.949727 25.414 1.3248C25.789 1.69987 26 2.20858 26 2.73901ZM8 10.739H4V22.739H8V10.739ZM8.25 6.73901C8.2599 6.29201 8.1365 5.85218 7.8954 5.47565C7.6542 5.09912 7.3064 4.80297 6.8962 4.62498C6.4861 4.44699 6.0322 4.39523 5.5925 4.47632C5.1528 4.55741 4.7472 4.76766 4.4275 5.08025C4.1079 5.39283 3.8885 5.79357 3.7976 6.23134C3.7066 6.66911 3.7482 7.12404 3.9169 7.5381C4.0856 7.95215 4.3739 8.30655 4.7449 8.55607C5.1159 8.80558 5.5529 8.9389 6 8.93901C6.2934 8.94706 6.5855 8.89602 6.8588 8.78895C7.1322 8.68187 7.3812 8.52093 7.5911 8.3157C7.801 8.11047 7.9675 7.86513 8.0807 7.59427C8.1939 7.32341 8.2514 7.03256 8.25 6.73901ZM22 15.299C22 11.649 19.71 10.399 17.53 10.399C16.7782 10.3944 16.0375 10.58 15.3766 10.9384C14.7158 11.2968 14.1562 11.8164 13.75 12.449V10.739H10V22.739H14V16.209C13.956 15.8915 13.9801 15.5682 14.0706 15.2606C14.1611 14.9531 14.316 14.6684 14.525 14.4253C14.7341 14.1822 14.9924 13.9864 15.2829 13.8508C15.5734 13.7153 15.8894 13.6431 16.21 13.639C17.31 13.639 18 14.229 18 16.159V22.739H22V15.299Z" fill="#0A66C2"/>
</svg>
