<svg width="50" height="50" viewBox="0 0 50 50" fill="none" xmlns="http://www.w3.org/2000/svg">
<rect width="50" height="50" rx="1.3" fill="#D9E700"/>
<path d="M20.5029 22.6719H24.8975V37.4375C24.8975 38.7949 24.5947 39.9961 23.9893 41.041C23.3936 42.0762 22.5488 42.877 21.4551 43.4434C20.3613 44.0098 19.126 44.293 17.749 44.293C15.4932 44.293 13.7354 43.7217 12.4756 42.5791C11.2158 41.4268 10.5859 39.8008 10.5859 37.7012H15.0098C15.0098 38.7461 15.2295 39.5176 15.6689 40.0156C16.1084 40.5137 16.8018 40.7627 17.749 40.7627C18.5889 40.7627 19.2578 40.4746 19.7559 39.8984C20.2539 39.3223 20.5029 38.502 20.5029 37.4375V22.6719ZM39.7217 38.4043C39.7217 37.5742 39.4287 36.9395 38.8428 36.5C38.2568 36.0508 37.2021 35.582 35.6787 35.0938C34.1553 34.5957 32.9492 34.1074 32.0605 33.6289C29.6387 32.3203 28.4277 30.5576 28.4277 28.3408C28.4277 27.1885 28.75 26.1631 29.3945 25.2646C30.0488 24.3564 30.9814 23.6484 32.1924 23.1406C33.4131 22.6328 34.7803 22.3789 36.2939 22.3789C37.8174 22.3789 39.1748 22.6572 40.3662 23.2139C41.5576 23.7607 42.4805 24.5371 43.1348 25.543C43.7988 26.5488 44.1309 27.6914 44.1309 28.9707H39.7363C39.7363 27.9941 39.4287 27.2373 38.8135 26.7002C38.1982 26.1533 37.334 25.8799 36.2207 25.8799C35.1465 25.8799 34.3115 26.1094 33.7158 26.5684C33.1201 27.0176 32.8223 27.6133 32.8223 28.3555C32.8223 29.0488 33.1689 29.6299 33.8623 30.0986C34.5654 30.5674 35.5957 31.0068 36.9531 31.417C39.4531 32.1689 41.2744 33.1016 42.417 34.2148C43.5596 35.3281 44.1309 36.7148 44.1309 38.375C44.1309 40.2207 43.4326 41.6709 42.0361 42.7256C40.6396 43.7705 38.7598 44.293 36.3965 44.293C34.7559 44.293 33.2617 43.9951 31.9141 43.3994C30.5664 42.7939 29.5361 41.9688 28.8232 40.9238C28.1201 39.8789 27.7686 38.668 27.7686 37.291H32.1777C32.1777 39.6445 33.584 40.8213 36.3965 40.8213C37.4414 40.8213 38.2568 40.6113 38.8428 40.1914C39.4287 39.7617 39.7217 39.166 39.7217 38.4043Z" fill="#373747"/>
</svg>
