<svg width="67" height="50" viewBox="0 0 67 50" fill="none" xmlns="http://www.w3.org/2000/svg">
<g clip-path="url(#clip0)">
<path d="M57.3698 28.7239C55.039 28.7369 53.0208 29.2968 51.3281 30.1302C50.7031 28.8932 50.0781 27.8125 49.9739 27.0052C49.8568 26.0677 49.7135 25.4948 49.8568 24.375C50 23.2552 50.651 21.6666 50.651 21.5364C50.638 21.4192 50.5078 20.8463 49.1667 20.8333C47.8255 20.8203 46.6666 21.0937 46.5364 21.4453C46.4062 21.7968 46.1458 22.6041 45.9765 23.4375C45.7422 24.6614 43.2943 28.9974 41.901 31.276C41.4453 30.3906 41.0547 29.6093 40.9765 28.9843C40.8594 28.0468 40.7161 27.4739 40.8594 26.3541C41.0026 25.2343 41.6536 23.6458 41.6536 23.5156C41.6406 23.3984 41.5104 22.8255 40.1693 22.8125C38.8281 22.7995 37.6693 23.0729 37.539 23.4245C37.4088 23.776 37.2656 24.6093 36.9791 25.4166C36.7057 26.2239 33.4505 33.4635 32.6041 35.3515C32.1745 36.3151 31.7969 37.0833 31.5234 37.6041C31.25 38.125 31.5104 37.6432 31.4844 37.6953C31.25 38.138 31.1198 38.3854 31.1198 38.3854V38.3984C30.9375 38.7239 30.7422 39.0364 30.651 39.0364C30.5859 39.0364 30.4557 38.164 30.6771 36.9661C31.1588 34.4531 32.3307 30.5338 32.3177 30.3906C32.3177 30.3255 32.539 29.6354 31.5625 29.2838C30.612 28.9323 30.2734 29.5182 30.1953 29.5182C30.1172 29.5182 30.0521 29.7265 30.0521 29.7265C30.0521 29.7265 31.1068 25.3125 28.0338 25.3125C26.1068 25.3125 23.4505 27.4088 22.1354 29.3229C21.3021 29.7786 19.5312 30.7422 17.6562 31.7708C16.9401 32.1614 16.1979 32.5781 15.4948 32.9557L15.3515 32.7994C11.6276 28.8281 4.73957 26.0156 5.02603 20.6771C5.13019 18.737 5.80728 13.6198 18.2552 7.42185C28.4505 2.34373 36.6146 3.73696 38.0338 6.83592C40.0521 11.263 33.6719 19.4922 23.0729 20.6771C19.0364 21.1328 16.914 19.5703 16.3802 18.9843C15.8203 18.3724 15.7422 18.3463 15.5338 18.4635C15.1953 18.6458 15.4036 19.1927 15.5338 19.5182C15.8463 20.3385 17.1484 21.7968 19.362 22.526C21.3021 23.164 26.0417 23.5156 31.7708 21.3021C38.1901 18.8151 43.2031 11.914 41.7318 6.14581C40.2344 0.27342 30.4948 -1.65366 21.289 1.61456C15.8073 3.56769 9.86978 6.61456 5.59894 10.612C0.520818 15.3515 -0.286473 19.4922 0.0520682 21.2109C1.23696 27.3437 9.68748 31.3411 13.0729 34.2968C12.9036 34.388 12.7474 34.4791 12.6042 34.5573C10.9114 35.3906 4.46613 38.763 2.85155 42.3307C1.02863 46.3672 3.13801 49.2708 4.54426 49.6614C8.89321 50.8724 13.3463 48.6979 15.7552 45.1172C18.151 41.5364 17.8646 36.888 16.7578 34.7656L16.7187 34.6875L18.0469 33.9062C18.9062 33.3984 19.7526 32.9297 20.4948 32.526C20.0781 33.6588 19.7786 35 19.6224 36.9531C19.4401 39.2448 20.3776 42.2135 21.6146 43.3854C22.1614 43.8932 22.8125 43.9062 23.2161 43.9062C24.6484 43.9062 25.2995 42.7213 26.0156 41.3021C26.901 39.5703 27.6823 37.5651 27.6823 37.5651C27.6823 37.5651 26.7057 42.9948 29.375 42.9948C30.3515 42.9948 31.3281 41.7317 31.7708 41.0807V41.0937C31.7708 41.0937 31.7969 41.0547 31.8489 40.9635C31.9531 40.8073 32.0052 40.7161 32.0052 40.7161V40.6901C32.3958 40.013 33.2682 38.4635 34.5703 35.8984C36.25 32.5911 37.8646 28.4505 37.8646 28.4505C37.8646 28.4505 38.0208 29.4661 38.5026 31.1328C38.789 32.1224 39.414 33.2031 39.8958 34.2578C39.5052 34.8047 39.2708 35.1172 39.2708 35.1172L39.2838 35.1302C38.9713 35.5468 38.6198 35.9896 38.2552 36.4323C36.9271 38.0208 35.3385 39.8307 35.1302 40.3515C34.8828 40.9635 34.9349 41.4192 35.4166 41.7838C35.7682 42.0442 36.3932 42.0963 37.0573 42.0442C38.2552 41.9661 39.0885 41.6666 39.5052 41.4843C40.1562 41.25 40.8984 40.8984 41.6146 40.3776C42.9167 39.414 43.7109 38.0468 43.6328 36.2239C43.5937 35.2213 43.2682 34.2317 42.8646 33.2942C42.9818 33.125 43.0989 32.9557 43.2161 32.7734C45.2734 29.7656 46.862 26.4583 46.862 26.4583C46.862 26.4583 47.0182 27.4739 47.5 29.1406C47.7474 29.9869 48.2422 30.9114 48.6849 31.8229C46.7578 33.3984 45.5469 35.2213 45.1302 36.4192C44.362 38.6328 44.9609 39.6354 46.0937 39.8698C46.6015 39.9739 47.3307 39.7396 47.8776 39.5052C48.5547 39.2838 49.375 38.9062 50.1302 38.3463C51.4323 37.3828 52.6823 36.0416 52.6172 34.2317C52.5781 33.3984 52.3568 32.5781 52.0573 31.7968C53.6979 31.1198 55.8203 30.7291 58.5156 31.0547C64.3099 31.7317 65.4557 35.3515 65.2344 36.8619C65.013 38.3724 63.8021 39.2057 63.3984 39.4661C62.9948 39.7135 62.8646 39.8047 62.9036 39.9869C62.9557 40.2604 63.138 40.2474 63.4896 40.1953C63.9713 40.1172 66.5364 38.9583 66.6406 36.1718C66.7969 32.5911 63.3984 28.6849 57.3698 28.7239V28.7239ZM12.6823 43.789C10.7682 45.8854 8.0729 46.6797 6.92707 46.0026C5.69009 45.2864 6.17186 42.2005 8.52863 39.9739C9.96092 38.6198 11.8229 37.3698 13.0469 36.6015C13.3203 36.4323 13.737 36.1849 14.2318 35.8854C14.3099 35.8333 14.362 35.8073 14.362 35.8073C14.4531 35.7552 14.5573 35.6901 14.6614 35.625C15.5338 38.8021 14.7005 41.5885 12.6823 43.789V43.789ZM26.6797 34.2708C26.0156 35.8984 24.6094 40.0781 23.763 39.8437C23.0338 39.6484 22.5911 36.4843 23.6198 33.3593C24.1406 31.7838 25.2474 29.9088 25.8984 29.1797C26.9531 28.0078 28.0989 27.6172 28.3854 28.0989C28.7239 28.7239 27.0963 33.2552 26.6797 34.2708ZM38.2292 39.7916C37.9427 39.9349 37.6823 40.039 37.5651 39.9609C37.4739 39.9088 37.6823 39.7135 37.6823 39.7135C37.6823 39.7135 39.1276 38.164 39.7005 37.4479C40.026 37.0312 40.4167 36.5494 40.8333 36.0026V36.1588C40.8333 38.0338 39.0364 39.2838 38.2292 39.7916V39.7916ZM47.1354 37.7604C46.9271 37.6041 46.9531 37.1224 47.6562 35.6119C47.9297 35.013 48.5547 34.0104 49.6354 33.0599C49.7656 33.4505 49.8437 33.8281 49.8307 34.1797C49.8177 36.5234 48.151 37.3958 47.1354 37.7604Z" fill="#CF649A"/>
</g>
<defs>
<clipPath id="clip0">
<rect width="66.6667" height="50" fill="white"/>
</clipPath>
</defs>
</svg>
