<svg width="50" height="50" viewBox="0 0 50 50" fill="none" xmlns="http://www.w3.org/2000/svg">
<path fill-rule="evenodd" clip-rule="evenodd" d="M1.875 0H48.125C49.1605 0 50 0.839465 50 1.875V48.125C50 49.1606 49.1605 50 48.125 50H1.875C0.839465 50 0 49.1606 0 48.125V1.875C0 0.839465 0.839465 0 1.875 0V0ZM27.7947 26.6008V22.5H9.99998V26.6008H16.353V44.8596H21.4105V26.6008H27.7947ZM29.811 44.3775C30.6265 44.7933 31.5911 45.1052 32.7046 45.3131C33.8183 45.521 34.9919 45.625 36.2258 45.625C37.4283 45.625 38.5705 45.5106 39.6528 45.2819C40.7349 45.0533 41.6837 44.6763 42.4993 44.1513C43.3148 43.6263 43.9606 42.9404 44.4363 42.0931C44.9121 41.2458 45.1499 40.1985 45.1499 38.951C45.1499 38.0465 45.014 37.254 44.7421 36.5731C44.4703 35.8921 44.0783 35.2865 43.5658 34.7563C43.0536 34.2262 42.4392 33.7506 41.7229 33.3296C41.0066 32.9087 40.1991 32.511 39.2999 32.1367C38.641 31.8663 38.0502 31.6038 37.5275 31.3492C37.0046 31.0946 36.5602 30.8346 36.1944 30.5696C35.8284 30.3044 35.5462 30.0238 35.3475 29.7275C35.1488 29.4313 35.0495 29.096 35.0495 28.7217C35.0495 28.3787 35.1383 28.0694 35.3161 27.794C35.4939 27.5185 35.7447 27.2819 36.0689 27.0844C36.3931 26.8869 36.7903 26.7337 37.2609 26.6244C37.7314 26.5154 38.2543 26.4608 38.8293 26.4608C39.2476 26.4608 39.6893 26.4919 40.1546 26.5542C40.6199 26.6167 41.0878 26.7129 41.5583 26.8427C42.0289 26.9727 42.4864 27.1363 42.9307 27.334C43.3751 27.5315 43.7854 27.7602 44.1619 28.02V23.3577C43.3985 23.0665 42.5647 22.8508 41.6602 22.7106C40.7558 22.5702 39.718 22.5 38.5469 22.5C37.3551 22.5 36.2258 22.6273 35.1592 22.8821C34.0927 23.1367 33.1543 23.5344 32.3439 24.075C31.5335 24.6156 30.8931 25.3042 30.4227 26.141C29.9521 26.9779 29.7169 27.9785 29.7169 29.1427C29.7169 30.6294 30.1481 31.8977 31.0108 32.9475C31.8735 33.9975 33.1831 34.8863 34.9396 35.614C35.6299 35.8948 36.2727 36.1702 36.8689 36.4406C37.4648 36.7108 37.9797 36.9915 38.4136 37.2825C38.8475 37.5737 39.19 37.8906 39.441 38.2337C39.692 38.5767 39.8175 38.9665 39.8175 39.4033C39.8175 39.7256 39.7389 40.0244 39.5821 40.2998C39.4252 40.5754 39.1873 40.8144 38.8684 41.0171C38.5496 41.2198 38.1523 41.3785 37.6766 41.4927C37.2009 41.6071 36.6439 41.6642 36.0062 41.6642C34.9187 41.6642 33.8417 41.4746 32.7752 41.0952C31.7088 40.7158 30.7207 40.1465 29.811 39.3877V44.3775Z" fill="#3178C6"/>
</svg>
